<svg xmlns="http://www.w3.org/2000/svg" width="57.093" height="57.097" viewBox="0 0 57.093 57.097">
  <defs>
    <style>
      .cls-1 {
        fill: #0357aa;
        fill-rule: evenodd;
      }
    </style>
  </defs>
  <g id="CERRAR" transform="translate(-4403.215 -6494.233)">
    <path id="Trazado_1464" data-name="Trazado 1464" class="cls-1" d="M4430.356,6497.845a25.251,25.251,0,0,1,10.649,1.716,23.634,23.634,0,0,1,4.119,2.121,30.236,30.236,0,0,1,3.529,2.715,21.875,21.875,0,0,1,2.993,3.259,24.9,24.9,0,0,1,5.047,13.643c1.218,18.845-18.167,31.358-34.174,24.7a24.19,24.19,0,0,1-7.656-4.832,24.928,24.928,0,0,1-8.04-16.948C4405.921,6510.788,4416.119,6498.891,4430.356,6497.845Zm-27.113,26.278a28.546,28.546,0,1,0,27.193-29.853A28.524,28.524,0,0,0,4403.244,6524.123Z" transform="translate(0 0)"/>
    <path id="Trazado_1465" data-name="Trazado 1465" class="cls-1" d="M8658.881,10723.564l-6.91-6.854c-.864-.873-2.012-1.813-3.179-.642-1.126,1.13-.3,2.247.564,3.1l6.936,6.986c-.987,1.5-7.7,7.125-8.007,8.44a1.777,1.777,0,0,0,2.041,2.184c.835-.135.957-.51,1.4-.974.922-.97,6.483-6.594,7.154-7.054l6.914,6.855c.825.826,1.98,1.854,3.188.646,1.647-1.653-1.05-3.588-2.88-5.418l-4.625-4.68c.514-.751,5.9-6.012,6.978-7.083.51-.51,1.989-1.715.606-3.095-1.265-1.26-2.374-.155-3.035.516C8664.753,10717.793,8659.584,10723.1,8658.881,10723.564Z" transform="translate(-4227.124 -4203.375)"/>
  </g>
</svg>
